<svg width="192" height="192" viewBox="0 0 192 192" fill="none" xmlns="http://www.w3.org/2000/svg">
  <!-- 背景円 -->
  <circle cx="96" cy="96" r="88" fill="#3b82f6" stroke="#1e40af" stroke-width="8"/>
  
  <!-- マーライオンの頭部 -->
  <circle cx="96" cy="80" r="32" fill="#fbbf24" stroke="#f59e0b" stroke-width="2"/>
  
  <!-- マーライオンのたてがみ -->
  <path d="M64 80 Q96 50 128 80 Q120 90 110 85 Q100 80 90 85 Q80 90 70 85 Q64 80 64 80" fill="#f59e0b"/>
  
  <!-- 目 -->
  <circle cx="88" cy="75" r="4" fill="#1f2937"/>
  <circle cx="104" cy="75" r="4" fill="#1f2937"/>
  
  <!-- 鼻 -->
  <circle cx="96" cy="82" r="2" fill="#1f2937"/>
  
  <!-- 口 -->
  <path d="M92 88 Q96 92 100 88" stroke="#1f2937" stroke-width="2" fill="none"/>
  
  <!-- 水の噴射 -->
  <path d="M96 48 Q92 40 88 32 Q84 24 80 16" stroke="#60a5fa" stroke-width="3" fill="none"/>
  <path d="M96 48 Q100 40 104 32 Q108 24 112 16" stroke="#60a5fa" stroke-width="3" fill="none"/>
  <path d="M96 48 Q94 40 92 32 Q90 24 88 16" stroke="#60a5fa" stroke-width="2" fill="none"/>
  <path d="M96 48 Q98 40 100 32 Q102 24 104 16" stroke="#60a5fa" stroke-width="2" fill="none"/>
  
  <!-- 装飾的な波 -->
  <path d="M40 140 Q60 130 80 140 Q100 150 120 140 Q140 130 160 140" stroke="#60a5fa" stroke-width="4" fill="none"/>
  <path d="M30 160 Q50 150 70 160 Q90 170 110 160 Q130 150 150 160 Q170 150 190 160" stroke="#60a5fa" stroke-width="3" fill="none"/>
</svg>
